<svg xmlns="http://www.w3.org/2000/svg" viewBox="0 0 377.46 226.94">
    <defs>
        <style>
            @font-face{
                font-family: 'Wandertucker';
                src: url('./Wandertucker.ttf') format('truetype');
                
            }
            .cls-1{fill-rule:evenodd;}
            .cls-2{font-size:135.98px;font-family:'Wandertucker';}
            .cls-3{letter-spacing:-0.02em; font-family:'Wandertucker';}
            .cls-4{letter-spacing:0.01em; font-family:'Wandertucker';}
            .cls-5{letter-spacing:0em; font-family:'Wandertucker';}
            .cls-6{letter-spacing:0.03em; font-family:Wandertucker;}
        </style>
    </defs>
    <g id="Layer_1" data-name="Layer 1">
        <path class="cls-1" d="M30.29,191.7c1.13.44,2.24.93,3.39,1.31,15.71,5.19,31.26,4.43,46.71-1.14a80.38,80.38,0,0,0,26.08-15c11.24-9.9,18.08-22.58,20.88-37.22,4.43-23.18-1.94-43.63-16.91-61.49-7.56-9-14.76-18.17-19.54-29C84.36,34.28,82,19,85.73,3a10.43,10.43,0,0,0,0-1.6c-1.31,1.29-2.36,2.16-3.21,3.19-12.42,14.93-19,32-18.42,51.53.43,14.43,4.9,27.8,12.11,40.22,3.25,5.6,7,10.94,10.69,16.24,6.1,8.66,10.68,17.89,11.93,28.55,1.6,13.71-3.49,24.63-14.3,32.74-11.34,8.5-24.38,13.27-38.3,15.53-4.45.72-9,.9-13.49,1.34-.77.07-1.54.24-2.31.37Z" transform="translate(-3.76 -1.38)"/>
        <path class="cls-1" d="M190.41,91.43c-2.95-6.92-7.4-12.59-14.69-15.2a18.51,18.51,0,0,1-8-5.65,42.58,42.58,0,0,0-15.27-11.24,32.08,32.08,0,0,0-23.09-1.13A42.73,42.73,0,0,0,112,68.75c-.81.8-1.45,1.76-2.52,3.08,10.34,10.22,16.85,22.57,20.62,37.41,1.37-1.73,2.2-2.73,3-3.78A86.75,86.75,0,0,1,148.3,88.9,36.06,36.06,0,0,1,161.05,82c8.4-2.39,16.07-.69,22.9,4.67,2.08,1.63,4,3.5,5.93,5.26Z" transform="translate(-3.76 -1.38)"/>
        <path class="cls-1" d="M70.8,131.94q5.85-7.5,11.69-15c1.08-1.4.27-2.62-.55-3.79-1.86-2.66-3.82-5.25-5.57-8-6.86-10.74-12.05-22.2-14.44-34.79a3.83,3.83,0,0,0-3.55-3.54A53.44,53.44,0,0,0,31,69.28a86.34,86.34,0,0,0-26.08,15,4.66,4.66,0,0,0-.75.72,5.23,5.23,0,0,0-.39,1.19l5.49-.59c13.93-1.5,26.84,1.15,38,9.93,9.86,7.74,16.1,18.1,20.33,29.75.79,2.15,1.5,4.31,2.24,6.46Z" transform="translate(-3.76 -1.38)"/>
        <path class="cls-1" d="M22.78,187.82a5.42,5.42,0,0,0,1.18.26c15.56,0,30.73-2,44.93-8.87a63.41,63.41,0,0,0,17-12c7.27-7.12,9.84-15.76,8.56-25.67a56.88,56.88,0,0,0-5.62-17.83,38.83,38.83,0,0,0-2.12-3.45c-4.88,2-6,4.62-4.18,9.17,4.26,10.72,4.82,21.19-2.26,31.08A42.7,42.7,0,0,1,68,171.7c-10.93,6.9-23,10.74-35.54,13.52-3.21.72-6.45,1.32-9.68,2C22.76,187.41,22.77,187.61,22.78,187.82Z" transform="translate(-3.76 -1.38)"/>
        <path class="cls-1" d="M14.71,185.51c3.16-.48,6.33-.88,9.47-1.44,13.75-2.46,27.12-6.12,39.19-13.44,6.72-4.08,12.7-9,16.05-16.37,3.54-7.79,2.24-15.36-1.22-22.79-.13-.27-.52-.41-1.19-.92a74.34,74.34,0,0,0-4.82,5.74,4.11,4.11,0,0,0,0,3c2.37,8.24-.23,15-5.9,21C59.46,167.33,51,172,42,175.5c-7.94,3.16-16.17,5.58-24.28,8.32-1.06.35-2.12.67-3.19,1C14.62,185.05,14.67,185.28,14.71,185.51Z" transform="translate(-3.76 -1.38)"/>
    </g>
    <g id="Layer_2" data-name="Layer 2">
        <text class="cls-2" transform="translate(138.63 195.12)">
            <tspan class="cls-3">L</tspan>
            <tspan class="cls-4" x="54.12" y="0">o</tspan>
            <tspan class="cls-5" x="91.64" y="0">o</tspan>
            <tspan class="cls-6" x="127.54" y="0">p</tspan>
            <tspan x="174.72" y="0">ie</tspan>
        </text>
    </g>
</svg>