<svg width="24" height="24" viewBox="0 0 24 24" fill="none" xmlns="http://www.w3.org/2000/svg">
<path d="M8 6.00001V5.57501C8 4.59401 8.384 3.61501 9.326 3.33701C10.851 2.88701 13.149 2.88701 14.674 3.33701C15.616 3.61501 16 4.59401 16 5.57501V6.00001M18.5 7.50001L22 4.00001M5.5 7.50001L2 4.00001M6 18L2 21M5 12H1.5M22.5 12H19M18 18L22 21M12 13V21M5 9.00001C5 8.46958 5.21071 7.96087 5.58579 7.5858C5.96086 7.21073 6.46957 7.00001 7 7.00001H17C17.5304 7.00001 18.0391 7.21073 18.4142 7.5858C18.7893 7.96087 19 8.46958 19 9.00001V14C19 15.8565 18.2625 17.637 16.9497 18.9498C15.637 20.2625 13.8565 21 12 21V21C10.1435 21 8.36301 20.2625 7.05025 18.9498C5.7375 17.637 5 15.8565 5 14V9.00001Z" stroke="black" stroke-linecap="round" stroke-linejoin="round"/>
</svg>
