<svg width="24" height="24" viewBox="0 0 24 24" fill="none" xmlns="http://www.w3.org/2000/svg">
<path d="M3 10C3 9.46957 3.21071 8.96086 3.58579 8.58579C3.96086 8.21071 4.46957 8 5 8H19C19.5304 8 20.0391 8.21071 20.4142 8.58579C20.7893 8.96086 21 9.46957 21 10V19C21 19.5304 20.7893 20.0391 20.4142 20.4142C20.0391 20.7893 19.5304 21 19 21H5C4.46957 21 3.96086 20.7893 3.58579 20.4142C3.21071 20.0391 3 19.5304 3 19V10Z" stroke="black" stroke-linecap="round" stroke-linejoin="round"/>
<path d="M3 12L5.914 14.331C7.101 15.281 8.814 15.186 9.889 14.111C10.1662 13.8337 10.4953 13.6138 10.8575 13.4637C11.2197 13.3137 11.6079 13.2364 12 13.2364C12.3921 13.2364 12.7803 13.3137 13.1425 13.4637C13.5047 13.6138 13.8338 13.8337 14.111 14.111V14.111C14.6304 14.6303 15.3231 14.9398 16.0565 14.9804C16.7898 15.021 17.5124 14.7898 18.086 14.331L21 12" stroke="black" stroke-linecap="round"/>
<path d="M12 7C11.4696 7 10.9609 6.78929 10.5858 6.41421C10.2107 6.03914 10 5.53043 10 5C10 4.124 10.677 3.424 11.273 2.783L12 2L12.727 2.783C13.323 3.424 14 4.124 14 5C14 5.53043 13.7893 6.03914 13.4142 6.41421C13.0391 6.78929 12.5304 7 12 7Z" stroke="black" stroke-linecap="round" stroke-linejoin="round"/>
</svg>
