<svg width="33" height="33" viewBox="0 0 33 33" fill="none" xmlns="http://www.w3.org/2000/svg">
<g clip-path="url(#clip0_258_2)">
<path d="M5.73193 17.9283L7.38273 18.1795C7.95783 18.2671 8.5451 18.2281 9.10359 18.0654C9.66209 17.9026 10.1784 17.62 10.6164 17.2373C11.0545 16.8545 11.4038 16.3808 11.64 15.8492C11.8762 15.3176 11.9936 14.7409 11.9841 14.1593L11.8922 8.59814L16.6623 11.4583C17.1613 11.7573 17.7195 11.9438 18.2979 12.005C18.8764 12.0661 19.4613 12.0003 20.0117 11.8123C20.5622 11.6242 21.065 11.3183 21.4851 10.916C21.9052 10.5136 22.2325 10.0245 22.4441 9.48267L23.0524 7.92827L25.9184 16.4003C26.0435 16.7701 26.0825 17.1635 26.0324 17.5506C25.9823 17.9377 25.8446 18.3082 25.6296 18.634V18.634C24.3139 20.6268 22.5522 22.286 20.4842 23.4799C18.4161 24.6739 16.0985 25.37 13.7148 25.513V25.513C13.3252 25.5363 12.9354 25.4703 12.5751 25.3201C12.2148 25.1699 11.8936 24.9395 11.6359 24.6463L5.73193 17.9283Z" stroke="#FFC700" stroke-width="2" stroke-linecap="round" stroke-linejoin="round"/>
<path d="M14.428 20.9905C17.3427 20.8469 19.7745 19.4429 21.3562 16.9905" stroke="#FFC700" stroke-width="2" stroke-linecap="round" stroke-linejoin="round"/>
</g>
<defs>
<clipPath id="clip0_258_2">
<rect width="24" height="24" fill="white" transform="translate(0 12) rotate(-30)"/>
</clipPath>
</defs>
</svg>
