<svg width="13" height="12" viewBox="0 0 13 12" fill="none" xmlns="http://www.w3.org/2000/svg">
<g clip-path="url(#clip0_84_43)">
<path d="M8.55305 9.876L8.22841 7.314C8.18241 6.95111 8.00349 6.61729 7.72531 6.37531C7.44713 6.13333 7.08885 5.99986 6.71783 6H5.59986C5.22903 6.0001 4.87099 6.13368 4.59302 6.37564C4.31505 6.6176 4.13628 6.95128 4.0903 7.314L3.76515 9.876C3.74731 10.0168 3.76005 10.1596 3.80253 10.2952C3.845 10.4307 3.91625 10.5558 4.01153 10.6621C4.10681 10.7684 4.22394 10.8535 4.35515 10.9118C4.48636 10.97 4.62864 11.0001 4.77255 11H7.54617C7.69003 11 7.83226 10.9699 7.96341 10.9116C8.09455 10.8533 8.21162 10.7682 8.30685 10.6619C8.40207 10.5556 8.47327 10.4306 8.51572 10.2951C8.55816 10.1596 8.57089 10.0167 8.55305 9.876V9.876Z" stroke="black" stroke-width="0.5" stroke-linecap="round" stroke-linejoin="round"/>
<path d="M6.15943 4C6.99987 4 7.68117 3.32843 7.68117 2.5C7.68117 1.67157 6.99987 1 6.15943 1C5.319 1 4.6377 1.67157 4.6377 2.5C4.6377 3.32843 5.319 4 6.15943 4Z" stroke="black" stroke-width="0.5"/>
<path d="M2.10141 5.5C2.6617 5.5 3.1159 5.05228 3.1159 4.5C3.1159 3.94772 2.6617 3.5 2.10141 3.5C1.54112 3.5 1.08691 3.94772 1.08691 4.5C1.08691 5.05228 1.54112 5.5 2.10141 5.5Z" stroke="black" stroke-width="0.5"/>
<path d="M10.2174 5.5C10.7777 5.5 11.2319 5.05228 11.2319 4.5C11.2319 3.94772 10.7777 3.5 10.2174 3.5C9.65708 3.5 9.20288 3.94772 9.20288 4.5C9.20288 5.05228 9.65708 5.5 10.2174 5.5Z" stroke="black" stroke-width="0.5"/>
<path d="M2.10144 7H1.94623C1.70608 6.99997 1.4737 7.08392 1.29045 7.23691C1.10719 7.3899 0.984933 7.60201 0.945429 7.8355L0.776516 8.8355C0.752276 8.97877 0.75999 9.12553 0.799123 9.26557C0.838256 9.4056 0.907868 9.53555 1.00312 9.64638C1.09837 9.75721 1.21696 9.84626 1.35066 9.90732C1.48436 9.96839 1.62996 10 1.77731 10H3.62318M10.2174 7H10.3726C10.6128 6.99997 10.8451 7.08392 11.0284 7.23691C11.2116 7.3899 11.3339 7.60201 11.3734 7.8355L11.5423 8.8355C11.5666 8.97877 11.5588 9.12553 11.5197 9.26557C11.4806 9.4056 11.411 9.53555 11.3157 9.64638C11.2205 9.75721 11.1019 9.84626 10.9682 9.90732C10.8345 9.96839 10.6889 10 10.5415 10H8.69565" stroke="black" stroke-width="0.5" stroke-linecap="round" stroke-linejoin="round"/>
</g>
<defs>
<clipPath id="clip0_84_43">
<rect width="12.1739" height="12" fill="white" transform="translate(0.0725098)"/>
</clipPath>
</defs>
</svg>
