<svg width="24" height="24" viewBox="0 0 24 24" fill="none" xmlns="http://www.w3.org/2000/svg">
<path d="M13.544 10.456C12.7249 9.6372 11.6141 9.17725 10.456 9.17725C9.29784 9.17725 8.1871 9.6372 7.36799 10.456L4.27899 13.544C3.45987 14.3631 2.99969 15.474 2.99969 16.6325C2.99969 17.7909 3.45987 18.9018 4.27899 19.721C5.09811 20.5401 6.20908 21.0003 7.36749 21.0003C8.52591 21.0003 9.63687 20.5401 10.456 19.721L12 18.177" stroke="black" stroke-width="1" stroke-linecap="round" stroke-linejoin="round"/>
<path d="M10.456 13.5438C11.2751 14.3626 12.3858 14.8225 13.544 14.8225C14.7021 14.8225 15.8129 14.3626 16.632 13.5438L19.721 10.4558C20.5401 9.63669 21.0003 8.52572 21.0003 7.36731C21.0003 6.2089 20.5401 5.09793 19.721 4.27881C18.9019 3.45969 17.7909 2.99951 16.6325 2.99951C15.4741 2.99951 14.3631 3.45969 13.544 4.27881L12 5.82281" stroke="black" stroke-width="1" stroke-linecap="round" stroke-linejoin="round"/>
</svg>
