<svg width="13" height="12" viewBox="0 0 13 12" fill="none" xmlns="http://www.w3.org/2000/svg">
<path d="M2.60876 1H8.18847C8.59207 1 8.97913 1.15804 9.26451 1.43934C9.54989 1.72064 9.71021 2.10218 9.71021 2.5V9.5C9.71021 9.63261 9.65677 9.75979 9.56165 9.85355C9.46652 9.94732 9.3375 10 9.20297 10H7.68123" stroke="black" stroke-width="0.5" stroke-linecap="round" stroke-linejoin="round"/>
<path d="M6.15949 6V7M2.60876 1L6.45775 1.759C6.80268 1.82696 7.11307 2.0106 7.33613 2.2787C7.55918 2.54679 7.68113 2.88278 7.68123 3.2295V10.39C7.68118 10.4639 7.6645 10.537 7.63238 10.6038C7.60026 10.6706 7.5535 10.7296 7.49548 10.7764C7.43745 10.8233 7.3696 10.8569 7.29682 10.8748C7.22403 10.8927 7.14812 10.8945 7.07456 10.88L3.42442 10.161C3.19435 10.1157 2.98734 9.99314 2.83862 9.81428C2.6899 9.63541 2.60867 9.41126 2.60876 9.18V1Z" stroke="black" stroke-width="0.5" stroke-linecap="round" stroke-linejoin="round"/>
</svg>
