<svg width="24" height="24" viewBox="0 0 24 24" fill="none" xmlns="http://www.w3.org/2000/svg">
<path d="M20.958 15.3251C21.162 14.8391 20.579 14.4251 20.09 14.6411C19.1126 15.0701 18.0565 15.2908 16.989 15.2891C12.804 15.2891 9.412 11.9651 9.412 7.86406C9.41047 6.4794 9.80385 5.12303 10.546 3.95406C10.83 3.50606 10.489 2.88606 9.969 3.01806C5.96 4.04106 3 7.61306 3 11.8621C3 16.9091 7.175 21.0001 12.326 21.0001C16.226 21.0001 19.566 18.6551 20.958 15.3251Z" stroke="black"/>
<path d="M15.611 3.10328C15.081 2.74928 14.449 3.38128 14.802 3.91128L15.432 4.85628C15.6876 5.23945 15.824 5.68971 15.824 6.15028C15.824 6.61086 15.6876 7.06112 15.432 7.44428L14.802 8.38928C14.449 8.91928 15.082 9.55128 15.612 9.19728L16.556 8.56728C16.9392 8.31171 17.3894 8.17533 17.85 8.17533C18.3106 8.17533 18.7608 8.31171 19.144 8.56728L20.089 9.19728C20.619 9.55128 21.251 8.91928 20.897 8.38928L20.267 7.44428C20.0114 7.06112 19.8751 6.61086 19.8751 6.15028C19.8751 5.68971 20.0114 5.23945 20.267 4.85628L20.897 3.91128C21.251 3.38128 20.619 2.74928 20.088 3.10328L19.144 3.73328C18.7608 3.98885 18.3106 4.12523 17.85 4.12523C17.3894 4.12523 16.9392 3.98885 16.556 3.73328L15.611 3.10328V3.10328Z" stroke="black"/>
</svg>
