<svg width="13" height="12" viewBox="0 0 13 12" fill="none" xmlns="http://www.w3.org/2000/svg">
<path d="M6.15952 6C7.56025 6 8.69576 4.88071 8.69576 3.5C8.69576 2.11929 7.56025 1 6.15952 1C4.7588 1 3.62329 2.11929 3.62329 3.5C3.62329 4.88071 4.7588 6 6.15952 6Z" stroke="black" stroke-width="0.5"/>
<path d="M8.69575 7H8.8743C9.24513 7.0001 9.60317 7.13368 9.88114 7.37564C10.1591 7.6176 10.3379 7.95128 10.3839 8.314L10.5822 9.876C10.6 10.0167 10.5873 10.1596 10.5449 10.2951C10.5024 10.4306 10.4312 10.5556 10.336 10.6619C10.2408 10.7682 10.1237 10.8533 9.99255 10.9116C9.8614 10.9699 9.71918 11 9.57531 11H2.74372C2.59985 11 2.45763 10.9699 2.32648 10.9116C2.19533 10.8533 2.07826 10.7682 1.98304 10.6619C1.88782 10.5556 1.81662 10.4306 1.77417 10.2951C1.73172 10.1596 1.71899 10.0167 1.73683 9.876L1.93466 8.314C1.98067 7.95111 2.15958 7.61729 2.43776 7.37531C2.71594 7.13333 3.07423 6.99986 3.44524 7H3.62328" stroke="black" stroke-width="0.5" stroke-linecap="round" stroke-linejoin="round"/>
</svg>
