<svg width="16" height="16" viewBox="0 0 16 16" fill="none" xmlns="http://www.w3.org/2000/svg">
<path d="M8 2C4.6915 2 2 4.6915 2 8C2 11.3085 4.6915 14 8 14C11.3085 14 14 11.3085 14 8C14 4.6915 11.3085 2 8 2ZM8 3C10.7675 3 13 5.2325 13 8C13 10.7675 10.7675 13 8 13C5.2325 13 3 10.7675 3 8C3 5.2325 5.2325 3 8 3ZM8 5C6.9 5 6 5.9 6 7H7C7 6.4415 7.4415 6 8 6C8.5585 6 9 6.4415 9 7C8.99987 7.18686 8.94092 7.36893 8.83153 7.52041C8.72213 7.6719 8.56783 7.78511 8.3905 7.844L8.1875 7.906C7.98765 7.97334 7.81389 8.10154 7.6906 8.27263C7.5673 8.44372 7.50065 8.64911 7.5 8.86V9.5H8.5V8.8595L8.703 8.797C9.07973 8.67037 9.40738 8.42899 9.63998 8.10671C9.87258 7.78444 9.99848 7.39744 10 7C10 5.9 9.1 5 8 5ZM7.5 10V11H8.5V10H7.5Z" fill="#8694A4"/>
</svg>
