<svg width="13" height="12" viewBox="0 0 13 12" fill="none" xmlns="http://www.w3.org/2000/svg">
<g clip-path="url(#clip0_84_53)">
<path d="M7.17399 1.6345C7.17399 1.284 6.88588 1 6.5303 1H5.78921C5.43312 1 5.14501 1.284 5.14501 1.6345C5.14501 1.9235 4.94414 2.1715 4.67073 2.2775C4.62762 2.2945 4.5845 2.3125 4.5424 2.3305C4.27305 2.4455 3.95298 2.4105 3.74501 2.206C3.6243 2.08711 3.46065 2.02032 3.29001 2.02032C3.11937 2.02032 2.95571 2.08711 2.83501 2.206L2.31051 2.723C2.1899 2.84198 2.12214 3.0033 2.12214 3.1715C2.12214 3.3397 2.1899 3.50102 2.31051 3.62C2.51849 3.825 2.55399 4.14 2.43631 4.406C2.41782 4.44786 2.40007 4.49003 2.38305 4.5325C2.27551 4.802 2.02392 5 1.73073 5C1.37515 5 1.08704 5.284 1.08704 5.6345V6.3655C1.08704 6.716 1.37515 7 1.73073 7C2.02392 7 2.27551 7.198 2.38305 7.4675C2.4003 7.51 2.41856 7.5525 2.43631 7.594C2.55349 7.8595 2.51798 8.175 2.31051 8.38C2.1899 8.49898 2.12214 8.6603 2.12214 8.8285C2.12214 8.9967 2.1899 9.15802 2.31051 9.277L2.83501 9.794C2.95571 9.91289 3.11937 9.97968 3.29001 9.97968C3.46065 9.97968 3.6243 9.91289 3.74501 9.794C3.95298 9.589 4.27254 9.554 4.5424 9.6695C4.5845 9.688 4.62762 9.7055 4.67073 9.7225C4.94414 9.8285 5.14501 10.0765 5.14501 10.3655C5.14501 10.716 5.43312 11 5.7887 11H6.5303C6.88588 11 7.17399 10.716 7.17399 10.3655C7.17399 10.0765 7.37486 9.8285 7.64827 9.722C7.69138 9.7055 7.7345 9.688 7.7766 9.67C8.04595 9.554 8.36602 9.5895 8.57349 9.794C8.63326 9.85295 8.70423 9.89971 8.78235 9.93161C8.86046 9.96351 8.94419 9.97993 9.02874 9.97993C9.11329 9.97993 9.19702 9.96351 9.27513 9.93161C9.35324 9.89971 9.42422 9.85295 9.48399 9.794L10.0085 9.277C10.1291 9.15802 10.1969 8.9967 10.1969 8.8285C10.1969 8.6603 10.1291 8.49898 10.0085 8.38C9.80051 8.175 9.76501 7.86 9.88218 7.594C9.90095 7.5525 9.9187 7.51 9.93595 7.4675C10.0435 7.198 10.2951 7 10.5883 7C10.9438 7 11.232 6.716 11.232 6.3655V5.635C11.232 5.2845 10.9438 5.0005 10.5883 5.0005C10.2951 5.0005 10.0435 4.8025 9.93544 4.533C9.91845 4.49053 9.90069 4.44835 9.88218 4.4065C9.76551 4.141 9.80102 3.8255 10.0085 3.6205C10.1291 3.50152 10.1969 3.3402 10.1969 3.172C10.1969 3.0038 10.1291 2.84248 10.0085 2.7235L9.48399 2.2065C9.36329 2.08761 9.19963 2.02082 9.02899 2.02082C8.85835 2.02082 8.6947 2.08761 8.57399 2.2065C8.36602 2.4115 8.04646 2.4465 7.7766 2.331C7.73414 2.3126 7.69135 2.29493 7.64827 2.278C7.37486 2.1715 7.17399 1.9235 7.17399 1.635V1.6345Z" stroke="black" stroke-width="0.5"/>
<path d="M8.18846 6C8.18846 6.53043 7.9747 7.03914 7.59419 7.41421C7.21368 7.78929 6.6976 8 6.15948 8C5.62136 8 5.10528 7.78929 4.72477 7.41421C4.34426 7.03914 4.13049 6.53043 4.13049 6C4.13049 5.46957 4.34426 4.96086 4.72477 4.58579C5.10528 4.21071 5.62136 4 6.15948 4C6.6976 4 7.21368 4.21071 7.59419 4.58579C7.9747 4.96086 8.18846 5.46957 8.18846 6V6Z" stroke="black" stroke-width="0.5"/>
</g>
<defs>
<clipPath id="clip0_84_53">
<rect width="12.1739" height="12" fill="white" transform="translate(0.0725098)"/>
</clipPath>
</defs>
</svg>
