<svg width="26" height="26" viewBox="0 0 26 26" fill="none" xmlns="http://www.w3.org/2000/svg">
<g filter="url(#filter0_b_253_22)">
<rect x="1" y="1" width="24" height="24" rx="5" fill="white" fill-opacity="0.05"/>
<rect x="0.5" y="0.5" width="25" height="25" rx="5.5" stroke="white" stroke-opacity="0.5"/>
</g>
<g filter="url(#filter1_b_253_22)">
<rect x="1.5" y="1.5" width="23" height="23" rx="4.5" stroke="black"/>
</g>
<path d="M10.0091 17.3455L10.3875 14.3592C10.4411 13.9363 10.6497 13.5471 10.9739 13.2651C11.2982 12.983 11.7158 12.8275 12.1482 12.8276H13.4513C13.8836 12.8278 14.3009 12.9835 14.6249 13.2655C14.9489 13.5475 15.1573 13.9365 15.2109 14.3592L15.5899 17.3455C15.6107 17.5096 15.5958 17.6761 15.5463 17.8341C15.4968 17.9921 15.4138 18.1378 15.3027 18.2618C15.1916 18.3857 15.0551 18.4849 14.9022 18.5528C14.7492 18.6207 14.5834 18.6557 14.4157 18.6556H11.1827C11.015 18.6557 10.8493 18.6205 10.6964 18.5526C10.5435 18.4847 10.4071 18.3854 10.2961 18.2615C10.1851 18.1376 10.1021 17.9919 10.0526 17.8339C10.0031 17.676 9.98831 17.5095 10.0091 17.3455V17.3455Z" stroke="black" stroke-linecap="round" stroke-linejoin="round"/>
<path d="M12.7993 10.4968C11.8197 10.4968 11.0255 9.71401 11.0255 8.7484C11.0255 7.78278 11.8197 7 12.7993 7C13.7789 7 14.573 7.78278 14.573 8.7484C14.573 9.71401 13.7789 10.4968 12.7993 10.4968Z" stroke="black"/>
<defs>
<filter id="filter0_b_253_22" x="-5" y="-5" width="36" height="36" filterUnits="userSpaceOnUse" color-interpolation-filters="sRGB">
<feFlood flood-opacity="0" result="BackgroundImageFix"/>
<feGaussianBlur in="BackgroundImage" stdDeviation="2.5"/>
<feComposite in2="SourceAlpha" operator="in" result="effect1_backgroundBlur_253_22"/>
<feBlend mode="normal" in="SourceGraphic" in2="effect1_backgroundBlur_253_22" result="shape"/>
</filter>
<filter id="filter1_b_253_22" x="-4" y="-4" width="34" height="34" filterUnits="userSpaceOnUse" color-interpolation-filters="sRGB">
<feFlood flood-opacity="0" result="BackgroundImageFix"/>
<feGaussianBlur in="BackgroundImage" stdDeviation="2.5"/>
<feComposite in2="SourceAlpha" operator="in" result="effect1_backgroundBlur_253_22"/>
<feBlend mode="normal" in="SourceGraphic" in2="effect1_backgroundBlur_253_22" result="shape"/>
</filter>
</defs>
</svg>
