<svg width="26" height="26" viewBox="0 0 26 26" fill="none" xmlns="http://www.w3.org/2000/svg">
<g filter="url(#filter0_b_253_11)">
<rect x="1" y="1" width="24" height="24" rx="5" fill="white" fill-opacity="0.05"/>
<rect x="0.5" y="0.5" width="25" height="25" rx="5.5" stroke="white" stroke-opacity="0.5"/>
</g>
<g filter="url(#filter1_b_253_11)">
<rect x="1.5" y="1.5" width="23" height="23" rx="4.5" stroke="black"/>
</g>
<path d="M9.77853 18.1657L10.187 14.9426C10.2449 14.4861 10.47 14.0661 10.82 13.7617C11.1701 13.4573 11.6209 13.2894 12.0877 13.2896H13.4944C13.961 13.2897 14.4115 13.4577 14.7612 13.7621C15.111 14.0665 15.3359 14.4863 15.3938 14.9426L15.8029 18.1657C15.8253 18.3427 15.8093 18.5225 15.7559 18.693C15.7024 18.8635 15.6128 19.0208 15.4929 19.1546C15.373 19.2883 15.2256 19.3954 15.0605 19.4687C14.8954 19.542 14.7164 19.5798 14.5353 19.5797H11.0454C10.8644 19.5797 10.6855 19.5418 10.5205 19.4685C10.3554 19.3951 10.2081 19.2881 10.0883 19.1543C9.96851 19.0206 9.87892 18.8633 9.82551 18.6928C9.7721 18.5224 9.75609 18.3427 9.77853 18.1657V18.1657Z" stroke="black" stroke-linecap="round" stroke-linejoin="round"/>
<path d="M12.7904 10.7741C11.7329 10.7741 10.8757 9.92922 10.8757 8.88704C10.8757 7.84486 11.7329 7 12.7904 7C13.8479 7 14.7051 7.84486 14.7051 8.88704C14.7051 9.92922 13.8479 10.7741 12.7904 10.7741Z" stroke="black"/>
<path d="M17.8964 12.6611C17.1914 12.6611 16.6199 12.0978 16.6199 11.403C16.6199 10.7083 17.1914 10.145 17.8964 10.145C18.6014 10.145 19.1729 10.7083 19.1729 11.403C19.1729 12.0978 18.6014 12.6611 17.8964 12.6611Z" stroke="black"/>
<path d="M7.68446 12.6611C6.97947 12.6611 6.40797 12.0978 6.40797 11.403C6.40797 10.7083 6.97947 10.145 7.68446 10.145C8.38944 10.145 8.96094 10.7083 8.96094 11.403C8.96094 12.0978 8.38944 12.6611 7.68446 12.6611Z" stroke="black"/>
<path d="M17.8963 14.5483H18.0916C18.3938 14.5483 18.6862 14.6539 18.9168 14.8464C19.1474 15.0388 19.3012 15.3057 19.3509 15.5994L19.5634 16.8574C19.5939 17.0377 19.5842 17.2223 19.535 17.3985C19.4857 17.5746 19.3981 17.7381 19.2783 17.8776C19.1585 18.017 19.0092 18.129 18.841 18.2058C18.6728 18.2827 18.4896 18.3224 18.3042 18.3224H15.9816M7.68448 14.5483H7.48917C7.18701 14.5483 6.89462 14.6539 6.66404 14.8464C6.43346 15.0388 6.27963 15.3057 6.22992 15.5994L6.01739 16.8574C5.98689 17.0377 5.9966 17.2223 6.04584 17.3985C6.09507 17.5746 6.18266 17.7381 6.30251 17.8776C6.42236 18.017 6.57158 18.129 6.73981 18.2058C6.90804 18.2827 7.09123 18.3224 7.27664 18.3224H9.5992" stroke="black" stroke-linecap="round" stroke-linejoin="round"/>
<defs>
<filter id="filter0_b_253_11" x="-5" y="-5" width="36" height="36" filterUnits="userSpaceOnUse" color-interpolation-filters="sRGB">
<feFlood flood-opacity="0" result="BackgroundImageFix"/>
<feGaussianBlur in="BackgroundImage" stdDeviation="2.5"/>
<feComposite in2="SourceAlpha" operator="in" result="effect1_backgroundBlur_253_11"/>
<feBlend mode="normal" in="SourceGraphic" in2="effect1_backgroundBlur_253_11" result="shape"/>
</filter>
<filter id="filter1_b_253_11" x="-4" y="-4" width="34" height="34" filterUnits="userSpaceOnUse" color-interpolation-filters="sRGB">
<feFlood flood-opacity="0" result="BackgroundImageFix"/>
<feGaussianBlur in="BackgroundImage" stdDeviation="2.5"/>
<feComposite in2="SourceAlpha" operator="in" result="effect1_backgroundBlur_253_11"/>
<feBlend mode="normal" in="SourceGraphic" in2="effect1_backgroundBlur_253_11" result="shape"/>
</filter>
</defs>
</svg>
