<svg version="1.2" xmlns="http://www.w3.org/2000/svg" viewBox="0 0 383 400" width="383" height="400">
	<title>dytydtydtdtdtdt-ai</title>
	<style>
		.s0 { fill: #ffffff } 
	</style>
	<g id="Layer 1">
		<g id="&lt;Group&gt;">
			<g id="&lt;Group&gt;">
				<g id="&lt;Group&gt;">
					<g id="&lt;Group&gt;">
						<g id="&lt;Group&gt;">
							<path id="&lt;Path&gt;" class="s0" d="m55.1 388.7c1.6-0.3 3.1-0.6 4.7-0.8 9.2-0.9 18.5-1.3 27.6-2.7 28.6-4.7 55.2-14.4 78.5-31.9 22.1-16.6 32.5-38.9 29.3-67-2.6-21.8-12-40.7-24.5-58.5-7.6-10.8-15.2-21.8-21.9-33.2-14.7-25.5-23.9-52.8-24.8-82.4-1.1-40 12.3-75 37.8-105.5 1.7-2.1 3.8-3.9 6.5-6.6 0 2 0.2 2.7 0 3.3-7.6 32.8-2.8 64.1 10.6 94.5 9.8 22.2 24.5 41 40 59.5 30.7 36.5 43.7 78.4 34.6 125.9-5.7 30-19.7 55.9-42.7 76.2-15.6 13.7-33.8 23.7-53.4 30.7-31.7 11.5-63.5 13-95.7 2.4-2.3-0.8-4.6-1.8-6.9-2.7q0.1-0.6 0.3-1.2z"/>
							<path id="&lt;Path&gt;" class="s0" d="m381.6 185.5c-4-3.6-7.9-7.4-12.1-10.8-14-11-29.7-14.4-46.9-9.5-9.7 2.7-18.3 7.8-26.2 14.2-12 9.7-22.1 21.4-31.3 33.9-1.5 2.1-3.2 4.2-6 7.7-7.7-30.4-21.1-55.7-42.2-76.6 2.1-2.7 3.5-4.7 5.1-6.3 10.2-10 21.9-17.3 35.6-21.6 16-5 31.8-4.4 47.3 2.3 12.2 5.3 22.6 13.1 31.2 23.1 4.6 5.2 9.6 9.1 16.5 11.5 14.9 5.4 24.1 17 30.1 31.1q-0.5 0.5-1.1 1z"/>
							<path id="&lt;Path&gt;" class="s0" d="m135.8 267.2c-1.5-4.4-3-8.9-4.6-13.2-8.7-23.9-21.4-45.1-41.6-61-22.9-18-49.4-23.4-77.9-20.3-3.6 0.4-7.2 0.7-11.3 1.2 0.6-1.6 0.6-2.1 0.8-2.5 0.5-0.5 1-1 1.6-1.4 16.1-13.2 33.7-23.9 53.4-30.8 18.2-6.4 36.9-8.4 56.1-5.1 4.4 0.8 6.4 2.8 7.3 7.3 4.9 25.7 15.5 49.2 29.5 71.2 3.6 5.6 7.6 10.9 11.4 16.4 1.7 2.4 3.4 4.9 1.2 7.7-8 10.3-16 20.6-24 30.8q-0.9-0.1-1.9-0.3z"/>
							<path id="&lt;Path&gt;" class="s0" d="m39.3 380.7c6.6-1.4 13.3-2.6 19.8-4.1 25.6-5.7 50.4-13.5 72.8-27.7 9.7-6.1 18.4-13.4 25.2-22.8 14.5-20.2 13.3-41.7 4.6-63.6-3.7-9.3-1.4-14.6 8.6-18.8 1.4 2.3 3.1 4.6 4.3 7.1 5.7 11.6 9.9 23.6 11.5 36.5 2.6 20.3-2.6 38-17.5 52.6-10.3 10-21.8 18.2-34.8 24.4-29.1 14.1-60.1 18.2-92 18.2-0.8 0-1.6-0.4-2.4-0.5q0-0.7-0.1-1.3z"/>
							<path id="&lt;Path&gt;" class="s0" d="m22.6 375.8c2.2-0.7 4.3-1.3 6.5-2 16.6-5.6 33.5-10.6 49.7-17.1 18.4-7.2 35.7-16.7 49.6-31.2 11.6-12.2 17-26.1 12.1-43-0.5-1.9-0.9-4.7 0.1-6.1 2.9-4.1 6.5-7.8 9.9-11.7 1.3 1 2.1 1.3 2.4 1.9 7.1 15.2 9.7 30.7 2.5 46.6-6.9 15.2-19.1 25.2-32.9 33.6-24.7 14.9-52.1 22.4-80.2 27.5-6.5 1.1-13 2-19.4 2.9q-0.2-0.7-0.3-1.4z"/>
						</g>
					</g>
				</g>
			</g>
		</g>
	</g>
</svg>