<svg width="427" height="470" viewBox="0 0 427 470" fill="none" xmlns="http://www.w3.org/2000/svg">
<path fill-rule="evenodd" clip-rule="evenodd" d="M154.378 -28.3379C190.555 -17.8551 218.936 4.9881 250.798 25.0705C285.602 47.0076 323.792 62.1002 349.194 94.4557C384.662 139.633 441.494 190.602 423.598 245.174C405.691 299.782 318.534 286.027 274.325 322.764C224.639 364.051 218.01 457.686 154.378 468.887C92.6729 479.749 49.6214 408.412 -0.766556 371.189C-50.6275 334.355 -118.072 311.379 -138.192 252.758C-158.382 193.93 -129.817 130.206 -102.684 74.2387C-78.5068 24.3694 -44.9776 -25.1698 6.50945 -45.715C53.7578 -64.5688 105.515 -42.4963 154.378 -28.3379Z" fill="#2D3641"/>
<path fill-rule="evenodd" clip-rule="evenodd" d="M151.543 63.8C196.275 66.5319 240.289 73.276 278.312 95.7692C318.5 119.544 373.639 148.748 370.902 193.567C367.924 242.333 302.022 261.364 266.062 296.363C248.966 313.003 230.943 326.557 215.632 344.691C191.674 373.066 188.447 422.111 151.543 431.997C116.103 441.49 76.6499 415.656 54.323 387.902C33.8435 362.444 46.9889 326.592 41.3593 295.029C36.8737 269.88 28.1535 247.365 24.7442 222.065C18.2115 173.587 -18.8673 118.449 12.3187 79.5237C41.288 43.3657 103.733 60.88 151.543 63.8Z" fill="#425670"/>
<path fill-rule="evenodd" clip-rule="evenodd" d="M130.283 379.381C87.554 380.144 69.2589 325.599 37.9056 295.945C4.11238 263.983 -46.2784 247.187 -57.6725 201.612C-71.3034 147.091 -63.9498 82.8411 -25.4337 42.6C13.3096 2.12155 76.265 -7.449 130.283 5.23933C176.208 16.0266 192.477 70.1738 227.76 102.073C267.816 138.288 349.857 147.034 347.488 201.613C345.094 256.767 261.672 258.176 219.485 292.703C186.191 319.952 172.945 378.619 130.283 379.381Z" fill="#4A688E"/>
</svg>
