<svg version="1.2" xmlns="http://www.w3.org/2000/svg" viewBox="0 0 496 430" width="496" height="430">
	<title>aboutus2-svg</title>
	<style>
		.s0 { fill: #bdc1c6 } 
		.s1 { fill: #d8dbde } 
		.s2 { fill: #e9ecee } 
	</style>
	<path id="Layer" fill-rule="evenodd" class="s0" d="m69.4 266.7c-0.6-53.2 20.6-117.8 69.2-139.4 50.1-22.3 101.1 47.3 155.3 39.6 62.1-8.8 101-94.3 163.1-84.6 61.7 9.6 105.4 72 128.3 130 22.9 57.9 22.2 126.1-5.1 181.9-25.2 51.2-88.6 65.2-133.4 100.5-42.8 33.8-68.5 102.6-123 101.6-55.2-1-85.1-64.8-121.9-106-26.3-29.6-40.5-64.6-60.7-98.7-25.1-42.3-71.4-75.6-71.8-124.9z"/>
	<path id="Layer" fill-rule="evenodd" class="s1" d="m127.3 194.2c36.6-37.1 101.1 10 152.6 1.6 31.8-5.2 53.2-37 85.3-40.6 41.9-4.8 86.7-5.5 122.2 17.2 41.2 26.2 79.8 66.4 84.8 114.8 5 48.5-21.2 99.7-59.8 129.4-34.7 26.7-84 8.9-127.5 14.7-27.8 3.7-53 12.6-81.1 13.1-36.9 0.6-77.6 11.4-107.7-10-31.9-22.7-39.8-65.1-50.6-102.7-13-45.6-51.6-103.8-18.2-137.5z"/>
	<path id="Layer" fill-rule="evenodd" class="s2" d="m273.9 409c-32.3-46.9-121.6-71.2-105.6-125.9 16.1-55 102.7-33.8 157.4-51.2 35.2-11.3 65-34.9 101.8-31.7 44.8 4 98.5 11.4 119.2 51.3 20.5 39.5-15.8 82.6-27.6 125.5-11.7 42.4-6.7 91.8-40.1 120.4-38 32.5-94.3 53.5-140.2 33.7-44-18.9-37.8-82.6-64.9-122.1z"/>
</svg>