<svg width="496" height="430" viewBox="0 0 496 430" fill="none" xmlns="http://www.w3.org/2000/svg">
<path fill-rule="evenodd" clip-rule="evenodd" d="M69.3591 266.743C68.849 213.533 90.0147 148.893 138.636 127.272C188.655 105.029 239.659 174.569 293.863 166.909C356.042 158.121 394.949 72.611 456.998 82.278C518.679 91.8877 562.395 154.253 585.32 212.317C608.155 270.154 607.535 338.393 580.158 394.224C555.039 445.449 491.641 459.421 446.832 494.736C404.019 528.478 378.29 597.267 323.788 596.275C268.608 595.271 238.666 531.456 201.919 490.28C175.564 460.748 161.36 425.692 141.17 391.646C116.06 349.302 69.831 315.97 69.3591 266.743Z" fill="#2D3641"/>
<path fill-rule="evenodd" clip-rule="evenodd" d="M127.255 194.179C163.864 157.134 228.414 204.232 279.86 195.798C311.734 190.573 333.063 158.802 365.161 155.177C407.071 150.443 451.86 149.658 487.441 172.354C528.585 198.598 567.249 238.754 572.213 287.245C577.173 335.701 551.037 386.88 512.44 416.566C477.709 443.278 428.411 425.482 384.943 431.279C357.118 434.989 331.92 443.916 303.848 444.38C266.884 444.991 226.234 455.845 196.1 434.401C164.219 411.715 156.306 369.307 145.535 331.724C132.47 286.135 93.9477 227.884 127.255 194.179Z" fill="#415670"/>
<path fill-rule="evenodd" clip-rule="evenodd" d="M273.863 409.033C241.613 362.115 152.329 337.785 168.309 283.125C184.396 228.096 271.037 249.329 325.658 231.864C360.866 220.606 390.72 196.964 427.534 200.237C472.315 204.219 526.016 211.611 546.689 251.517C567.166 291.047 530.94 334.096 519.117 377.028C507.442 419.422 512.408 468.837 478.971 497.41C440.985 529.87 384.654 550.895 338.781 531.129C294.767 512.165 301.007 448.522 273.863 409.033Z" fill="#4A688E"/>
</svg>
