<svg version="1.2" xmlns="http://www.w3.org/2000/svg" viewBox="0 0 427 470" width="427" height="470">
	<title>aboutus1-svg</title>
	<style>
		.s0 { fill: #bdc1c6 } 
		.s1 { fill: #d8dbde } 
		.s2 { fill: #e9ecee } 
	</style>
	<path id="Layer" fill-rule="evenodd" class="s0" d="m154.4-28.3c36.2 10.4 64.5 33.3 96.4 53.4 34.8 21.9 73 37 98.4 69.4 35.5 45.1 92.3 96.1 74.4 150.7-17.9 54.6-105.1 40.8-149.3 77.6-49.7 41.3-56.3 134.9-119.9 146.1-61.7 10.8-104.8-60.5-155.2-97.7-49.8-36.8-117.3-59.8-137.4-118.4-20.2-58.9 8.4-122.6 35.5-178.6 24.2-49.8 57.7-99.4 109.2-119.9 47.3-18.9 99 3.2 147.9 17.4z"/>
	<path id="Layer" fill-rule="evenodd" class="s1" d="m151.5 63.8c44.8 2.7 88.8 9.5 126.8 32 40.2 23.7 95.3 52.9 92.6 97.8-3 48.7-68.9 67.8-104.8 102.8-17.1 16.6-35.2 30.2-50.5 48.3-23.9 28.4-27.2 77.4-64.1 87.3-35.4 9.5-74.9-16.3-97.2-44.1-20.5-25.5-7.3-61.3-12.9-92.9-4.5-25.1-13.2-47.6-16.7-72.9-6.5-48.5-43.6-103.7-12.4-142.6 29-36.1 91.4-18.6 139.2-15.7z"/>
	<path id="Layer" fill-rule="evenodd" class="s2" d="m130.3 379.4c-42.7 0.7-61-53.8-92.4-83.5-33.8-31.9-84.2-48.7-95.6-94.3-13.6-54.5-6.2-118.8 32.3-159 38.7-40.5 101.7-50 155.7-37.4 45.9 10.8 62.2 65 97.5 96.9 40 36.2 122.1 44.9 119.7 99.5-2.4 55.2-85.8 56.6-128 91.1-33.3 27.3-46.6 85.9-89.2 86.7z"/>
</svg>